<?xml version="1.0" encoding="UTF-8" standalone="no"?>
<!-- Created with Inkscape (http://www.inkscape.org/) -->

<svg
   width="172.12802mm"
   height="20.620646mm"
   viewBox="0 0 172.12802 20.620646"
   version="1.1"
   id="svg1"
   xml:space="preserve"
   xmlns="http://www.w3.org/2000/svg"
   xmlns:svg="http://www.w3.org/2000/svg"><defs
     id="defs1" /><rect
     style="fill:#000000;fill-opacity:1;stroke:#000000;stroke-width:0;stroke-linecap:round;stroke-linejoin:round;stroke-dasharray:none;stroke-opacity:1;paint-order:markers stroke fill"
     id="rect6"
     width="172.12802"
     height="20.620647"
     x="4.6059612e-14"
     y="2.9548777e-12"
     rx="3.734617"
     ry="3.734617" /><g
     id="layer1"
     transform="translate(39.865871,600.68231)"><g
       id="g4"
       transform="translate(-1.8360851,-0.56494926)"><path
         d="m -39.94156,-2236.3317 q 2.559999,-3.9253 6.399997,-6.144 3.839998,-2.304 8.53333,-2.304 v 15.4453 h -4.010665 q -5.461331,0 -8.191997,2.3894 -2.730665,2.304 -2.730665,8.192 v 22.1013 h -14.591994 v -47.616 h 14.591994 z m 43.605273,40.3626 q -6.9973304,0 -12.629328,-2.9866 -5.546664,-2.9867 -8.78933,-8.5334 -3.157332,-5.5466 -3.157332,-12.9706 0,-7.3387 3.242666,-12.8853 3.242665,-5.632 8.8746626,-8.6187 5.6319976,-2.9867 12.629328,-2.9867 6.9973304,0 12.6293284,2.9867 5.631997,2.9867 8.874663,8.6187 3.242665,5.5466 3.242665,12.8853 0,7.3386 -3.327999,12.9706 -3.242665,5.5467 -8.959996,8.5334 -5.631998,2.9866 -12.629328,2.9866 z m 0,-12.6293 q 4.1813316,0 7.082664,-3.072 2.986665,-3.072 2.986665,-8.7893 0,-5.7173 -2.901332,-8.7893 -2.8159988,-3.072 -6.9973304,-3.072 -4.26666485,0 -7.0826637,3.072 -2.8159988,2.9866 -2.8159988,8.7893 0,5.7173 2.7306655,8.7893 2.81599885,3.072 6.9973304,3.072 z m 47.274571,-28.928 q 2.047999,-3.328 5.887998,-5.376 3.839998,-2.048 8.789329,-2.048 5.887998,0 10.666663,2.9867 4.778664,2.9867 7.50933,8.5333 2.815999,5.5467 2.815999,12.8854 0,7.3386 -2.815999,12.9706 -2.730666,5.5467 -7.50933,8.6187 -4.778665,2.9866 -10.666663,2.9866 -5.034664,0 -8.789329,-1.9626 -3.754665,-2.048 -5.887998,-5.376 v 6.656 H 36.34629 v -63.1467 h 14.591994 z m 20.821325,16.9814 q 0,-5.4614 -3.071999,-8.5334 -2.986665,-3.1573 -7.423997,-3.1573 -4.351998,0 -7.423997,3.1573 -2.986665,3.1574 -2.986665,8.6187 0,5.4613 2.986665,8.6186 3.071999,3.1574 7.423997,3.1574 4.351998,0 7.423997,-3.1574 3.071999,-3.2426 3.071999,-8.7039 z m 37.120061,-16.9814 q 2.048,-3.328 5.888,-5.376 3.83999,-2.048 8.78932,-2.048 5.888,0 10.66667,2.9867 4.77866,2.9867 7.50933,8.5333 2.816,5.5467 2.816,12.8854 0,7.3386 -2.816,12.9706 -2.73067,5.5467 -7.50933,8.6187 -4.77867,2.9866 -10.66667,2.9866 -5.03466,0 -8.78932,-1.9626 -3.75467,-2.048 -5.888,-5.376 v 6.656 H 94.287674 v -63.1467 h 14.591996 z m 20.82132,16.9814 q 0,-5.4614 -3.072,-8.5334 -2.98666,-3.1573 -7.42399,-3.1573 -4.352,0 -7.424,3.1573 -2.98667,3.1574 -2.98667,8.6187 0,5.4613 2.98667,8.6186 3.072,3.1574 7.424,3.1574 4.35199,0 7.42399,-3.1574 3.072,-3.2426 3.072,-8.7039 z m 44.20272,24.5759 q -6.99733,0 -12.62933,-2.9866 -5.54667,-2.9867 -8.78933,-8.5334 -3.15733,-5.5466 -3.15733,-12.9706 0,-7.3387 3.24266,-12.8853 3.24267,-5.632 8.87467,-8.6187 5.63199,-2.9867 12.62932,-2.9867 6.99733,0 12.62933,2.9867 5.632,2.9867 8.87466,8.6187 3.24267,5.5466 3.24267,12.8853 0,7.3386 -3.328,12.9706 -3.24266,5.5467 -8.95999,8.5334 -5.632,2.9866 -12.62933,2.9866 z m 0,-12.6293 q 4.18133,0 7.08266,-3.072 2.98667,-3.072 2.98667,-8.7893 0,-5.7173 -2.90134,-8.7893 -2.81599,-3.072 -6.99733,-3.072 -4.26666,0 -7.08266,3.072 -2.816,2.9866 -2.816,8.7893 0,5.7173 2.73067,8.7893 2.816,3.072 6.99733,3.072 z m 101.03455,-35.6693 -12.88533,47.616 h -16.12799 l -7.50933,-30.8907 -7.76533,30.8907 h -16.04266 l -12.97066,-47.616 h 14.59199 l 6.74133,34.048 8.02133,-34.048 h 15.44533 l 8.10666,33.8773 6.656,-33.8773 z m 20.13858,-15.5307 v 63.1467 h -14.59199 v -63.1467 z m 7.68002,39.2534 q 0,-7.3387 2.73066,-12.8854 2.816,-5.5466 7.59466,-8.5333 4.77867,-2.9867 10.66667,-2.9867 5.03466,0 8.78933,2.048 3.83999,2.048 5.88799,5.376 v -6.7413 h 14.592 v 47.616 h -14.592 v -6.7414 q -2.13333,3.328 -5.97333,5.376 -3.75466,2.048 -8.78933,2.048 -5.80266,0 -10.58133,-2.9866 -4.77866,-3.072 -7.59466,-8.6187 -2.73066,-5.632 -2.73066,-12.9706 z m 35.66931,0.085 q 0,-5.4613 -3.07199,-8.6187 -2.98667,-3.1573 -7.33867,-3.1573 -4.352,0 -7.424,3.1573 -2.98666,3.072 -2.98666,8.5334 0,5.4613 2.98666,8.7039 3.072,3.1574 7.424,3.1574 4.352,0 7.33867,-3.1574 3.07199,-3.1573 3.07199,-8.6186 z m 54.18671,-24.32 q 8.36267,0 13.312,5.4613 5.03466,5.376 5.03466,14.848 v 27.8187 h -14.50666 v -25.856 q 0,-4.7787 -2.47466,-7.424 -2.47467,-2.6453 -6.656,-2.6453 -4.18133,0 -6.656,2.6453 -2.47466,2.6453 -2.47466,7.424 v 25.856 h -14.592 v -47.616 h 14.592 v 6.3147 q 2.21866,-3.1574 5.97333,-4.9494 3.75466,-1.8773 8.44799,-1.8773 z m 25.6,24.2347 q 0,-7.3387 2.73067,-12.8854 2.81599,-5.5466 7.59466,-8.5333 4.77866,-2.9867 10.66666,-2.9867 4.69333,0 8.53333,1.9627 3.92533,1.9627 6.144,5.2907 v -22.1014 h 14.59199 v 63.1467 H 453.8822 v -6.8267 q -2.048,3.4133 -5.888,5.4613 -3.75466,2.048 -8.78933,2.048 -5.888,0 -10.66666,-2.9866 -4.77867,-3.072 -7.59466,-8.6187 -2.73067,-5.632 -2.73067,-12.9706 z m 35.66932,0.085 q 0,-5.4613 -3.072,-8.6187 -2.98667,-3.1573 -7.33866,-3.1573 -4.352,0 -7.424,3.1573 -2.98667,3.072 -2.98667,8.5334 0,5.4613 2.98667,8.7039 3.072,3.1574 7.424,3.1574 4.35199,0 7.33866,-3.1574 3.072,-3.1573 3.072,-8.6186 z m 32.00002,24.4906 q -3.84,0 -6.31466,-2.2186 -2.38934,-2.304 -2.38934,-5.632 0,-3.4134 2.38934,-5.7174 2.47466,-2.304 6.31466,-2.304 3.75467,0 6.144,2.304 2.47466,2.304 2.47466,5.7174 0,3.328 -2.47466,5.632 -2.38933,2.2186 -6.144,2.2186 z"
         id="text4"
         style="font-weight:bold;font-size:85.3333px;font-family:Poppins;-inkscape-font-specification:'Poppins, Bold';white-space:pre;fill:#ffffff;stroke:#000000;stroke-width:12.8504;stroke-linecap:round;stroke-linejoin:round;paint-order:markers stroke fill"
         transform="matrix(0.26458333,0,0,0.26458333,1.057591,-0.48072316)"
         aria-label="robbowland." /><g
         id="g1"
         transform="matrix(1.5812805,0,0,1.5813783,-322.64146,-1021.7555)"
         style="stroke:#000000;stroke-width:0;stroke-linecap:round;stroke-linejoin:round;stroke-dasharray:none;stroke-opacity:1;paint-order:markers stroke fill"><circle
           style="fill:#ffffff;fill-opacity:1;stroke:#000000;stroke-width:0;stroke-linecap:round;stroke-linejoin:round;stroke-dasharray:none;stroke-opacity:1;paint-order:markers stroke fill"
           id="path25-6-8-7-9-8-7-3-0-8-2"
           cx="189.77898"
           cy="270.07742"
           r="2.4983726" /><circle
           style="fill:#ffffff;fill-opacity:1;stroke:#000000;stroke-width:0;stroke-linecap:round;stroke-linejoin:round;stroke-dasharray:none;stroke-opacity:1;paint-order:markers stroke fill"
           id="path25-6-8-7-9-8-7-57-7-6-4-4"
           cx="189.77841"
           cy="276.07101"
           r="2.4983726" /><circle
           style="fill:#ffffff;fill-opacity:1;stroke:#000000;stroke-width:0;stroke-linecap:round;stroke-linejoin:round;stroke-dasharray:none;stroke-opacity:1;paint-order:markers stroke fill"
           id="path25-6-8-7-9-8-7-52-1-5-9-8"
           cx="183.7946"
           cy="270.07687"
           r="2.4983726" /><path
           id="rect26-3-0-2-5-1-6-3"
           style="fill:#ffffff;stroke:#000000;stroke-width:0;stroke-linecap:round;stroke-linejoin:round;stroke-dasharray:none;stroke-opacity:1;paint-order:markers stroke fill"
           d="m 149.44539,265.87185 v 1.93625 a 0.5818154,0.5818154 135 0 1 -0.58182,0.58182 h -1.83088 a 0.41171402,0.41171402 66.657194 0 1 -0.29957,-0.69415 l 1.99003,-2.11071 a 0.41805778,0.41805778 21.657194 0 1 0.72224,0.28679 z"
           transform="matrix(1.6363859,0,0,1.6319315,-58.511588,-159.63252)" /></g></g></g></svg>
